<svg width="254" height="147" viewBox="0 0 254 147" fill="none" xmlns="http://www.w3.org/2000/svg">
<path d="M36.6211 63.4277H80.7129C88.2324 61.5723 92.0898 56.4453 92.2852 48.0469C92.0898 38.6719 87.8418 33.3008 79.541 31.9336H36.6211V63.4277ZM0 146.191V0H83.7891C97.4609 0.585938 108.594 5.17578 117.188 13.7695C125.879 22.2656 130.225 33.6426 130.225 47.9004C129.736 72.0215 118.604 86.9629 96.8262 92.7246L133.74 146.191H89.209L36.4746 71.3379V146.191H0ZM253.271 0L237.158 31.2012H134.619V0H253.271ZM171.094 87.3047V146.191L134.619 146.045V56.1035H237.158V87.3047H171.094Z" fill="#C0C0C0"/>
</svg>
